<svg width="25" height="30" viewBox="0 0 25 30" fill="none" xmlns="http://www.w3.org/2000/svg">
<path d="M12.0937 0C4.63303 0 0 5.74705 0 15C0 24.2529 4.63303 30 12.0937 30C19.5544 30 24.1874 24.2529 24.1874 15C24.1874 5.74705 19.5708 0 12.0937 0ZM23.365 15C23.365 23.7451 19.0465 29.1776 12.0937 29.1776C5.14089 29.1776 0.822411 23.7451 0.822411 15C0.822411 6.25491 5.154 0.822412 12.0937 0.822412C19.0334 0.822412 23.365 6.25819 23.365 15Z" fill="white"/>
<path d="M8.01784 7.65728C7.48049 6.95938 7.78848 6.41219 8.13907 6.14679C8.35336 5.99887 8.61758 5.94202 8.87374 5.9887C9.1299 6.03539 9.35707 6.1818 9.50539 6.39581L10.6849 7.87025H11.124V6.28441C11.124 6.07672 11.0415 5.87754 10.8946 5.73068C10.7478 5.58382 10.5486 5.50132 10.3409 5.50132H8.12269C7.78961 5.4929 7.46189 5.58625 7.18323 5.7689C6.90457 5.95155 6.68823 6.21482 6.56306 6.5236C6.45004 6.81964 6.42082 7.14112 6.47862 7.45268C6.53643 7.76425 6.67902 8.05385 6.89071 8.28965L9.86253 12.061C10.3999 12.7589 10.0919 13.306 9.73802 13.5714C9.52399 13.7183 9.26053 13.7746 9.00517 13.7279C8.7498 13.6813 8.52326 13.5355 8.37498 13.3224C8.04733 12.9129 7.03488 11.6645 7.03488 11.6645H6.68429V13.4371C6.68515 13.6451 6.76839 13.8443 6.91577 13.991C7.06315 14.1378 7.26267 14.2202 7.47066 14.2202H9.76424C10.0982 14.229 10.427 14.1355 10.7063 13.9522C10.9857 13.7689 11.2023 13.5046 11.3271 13.1946C11.4402 12.8986 11.4694 12.5771 11.4116 12.2655C11.3538 11.954 11.2112 11.6644 10.9995 11.4286L8.01784 7.65728Z" fill="white"/>
<path d="M16.0649 5.50134H13.8466C13.6389 5.50134 13.4398 5.58384 13.2929 5.7307C13.146 5.87756 13.0635 6.07675 13.0635 6.28443V7.87028H13.5026L14.6822 6.39584C14.8305 6.18183 15.0576 6.03541 15.3138 5.98873C15.57 5.94204 15.8342 5.9989 16.0485 6.14682C16.3991 6.41222 16.7038 6.9594 16.1697 7.6573L13.1979 11.4286C12.9852 11.6638 12.842 11.9535 12.7841 12.2653C12.7263 12.5771 12.7561 12.8988 12.8702 13.1947C12.9949 13.504 13.211 13.768 13.4897 13.9513C13.7684 14.1345 14.0964 14.2284 14.4299 14.2202H16.7234C16.9311 14.2202 17.1303 14.1377 17.2772 13.9909C17.424 13.844 17.5065 13.6448 17.5065 13.4371V11.6645H17.1527C17.1527 11.6645 16.1697 12.9129 15.8126 13.3224C15.6642 13.5364 15.4371 13.6829 15.1809 13.7296C14.9247 13.7762 14.6605 13.7194 14.4462 13.5715C14.0924 13.3061 13.7909 12.7589 14.325 12.061L17.3001 8.28968C17.5128 8.05445 17.656 7.76482 17.7139 7.45302C17.7717 7.14122 17.7419 6.81949 17.6278 6.52362C17.5024 6.21431 17.2855 5.95067 17.0062 5.76797C16.7269 5.58528 16.3985 5.49225 16.0649 5.50134Z" fill="white"/>
<path d="M14.3284 17.939C13.7878 17.2411 14.0958 16.694 14.4497 16.4286C14.6639 16.2806 14.9282 16.2238 15.1843 16.2705C15.4405 16.3172 15.6677 16.4636 15.816 16.6776C16.1436 17.0871 17.1561 18.3388 17.1561 18.3388H17.5099V16.5695C17.5104 16.4663 17.4904 16.3642 17.4513 16.2688C17.4121 16.1734 17.3545 16.0867 17.2817 16.0136C17.209 15.9405 17.1225 15.8826 17.0273 15.843C16.9321 15.8034 16.83 15.7831 16.7269 15.7831H14.4333C14.0998 15.7749 13.7718 15.8688 13.4931 16.052C13.2144 16.2353 12.9983 16.4992 12.8736 16.8086C12.7595 17.1045 12.7297 17.4262 12.7875 17.738C12.8454 18.0498 12.9886 18.3395 13.2013 18.5747L16.1731 22.346C16.7105 23.0439 16.4025 23.5911 16.0519 23.8565C15.8376 24.0044 15.5734 24.0613 15.3172 24.0146C15.0611 23.9679 14.8339 23.8215 14.6856 23.6075L13.506 22.133H13.0637V23.7189C13.0637 23.9266 13.1462 24.1257 13.293 24.2726C13.4399 24.4195 13.6391 24.502 13.8468 24.502H16.065C16.3981 24.5104 16.7258 24.417 17.0045 24.2344C17.2831 24.0517 17.4995 23.7885 17.6246 23.4797C17.7388 23.1838 17.7686 22.8621 17.7107 22.5503C17.6529 22.2385 17.5097 21.9488 17.297 21.7136L14.3284 17.939Z" fill="white"/>
<path d="M10.9895 18.5714C11.2012 18.3356 11.3437 18.046 11.4015 17.7345C11.4593 17.4229 11.4301 17.1014 11.3171 16.8054C11.1923 16.4954 10.9756 16.2311 10.6963 16.0478C10.4169 15.8645 10.0882 15.771 9.7542 15.7798H7.46062C7.25206 15.7798 7.05205 15.8627 6.90457 16.0101C6.7571 16.1576 6.67425 16.3576 6.67425 16.5662V18.3355H7.0314C7.0314 18.3355 8.01436 17.0839 8.3715 16.6743C8.4442 16.5671 8.53737 16.4753 8.64566 16.4043C8.75395 16.3332 8.87521 16.2842 9.00249 16.2602C9.12976 16.2361 9.26053 16.2374 9.38729 16.2641C9.51405 16.2907 9.63428 16.3422 9.74109 16.4155C10.095 16.6809 10.3964 17.228 9.8656 17.9259L6.89706 21.7103C6.68536 21.9461 6.54278 22.2357 6.48497 22.5473C6.42717 22.8589 6.45638 23.1804 6.5694 23.4764C6.69457 23.7852 6.91092 24.0485 7.18958 24.2311C7.46824 24.4138 7.79596 24.5071 8.12904 24.4987H10.3473C10.5549 24.4987 10.7541 24.4162 10.901 24.2693C11.0478 24.1225 11.1303 23.9233 11.1303 23.7156V22.1297H10.6847L9.50518 23.6042C9.35686 23.8182 9.12969 23.9646 8.87353 24.0113C8.61737 24.058 8.35315 24.0011 8.13887 23.8532C7.78828 23.5878 7.48356 23.0406 8.01763 22.3427L10.9895 18.5714Z" fill="white"/>
</svg>
