<svg width="19" height="19" viewBox="0 0 19 19" fill="none" xmlns="http://www.w3.org/2000/svg">
<path fill-rule="evenodd" clip-rule="evenodd" d="M8.41667 17.3229C8.41667 17.8694 8.85972 18.3125 9.40625 18.3125C9.95278 18.3125 10.3958 17.8694 10.3958 17.3229V10.3958H17.3229C17.8694 10.3958 18.3125 9.95278 18.3125 9.40625C18.3125 8.85972 17.8694 8.41667 17.3229 8.41667H10.3958V1.48958C10.3958 0.943052 9.95278 0.5 9.40625 0.5C8.85972 0.5 8.41667 0.943052 8.41667 1.48958V8.41667H1.48958C0.943052 8.41667 0.5 8.85972 0.5 9.40625C0.5 9.95278 0.943052 10.3958 1.48958 10.3958H8.41667V17.3229Z" fill="white"/>
</svg>
