<svg width="16" height="16" viewBox="0 0 16 16" fill="none" xmlns="http://www.w3.org/2000/svg">
<path fill-rule="evenodd" clip-rule="evenodd" d="M5.75 1.5H13.75C14.0261 1.5 14.25 1.72386 14.25 2V10C14.25 10.2761 14.0261 10.5 13.75 10.5H5.75C5.47386 10.5 5.25 10.2761 5.25 10V2C5.25 1.72386 5.47386 1.5 5.75 1.5ZM3.75 2C3.75 0.895431 4.64543 0 5.75 0H13.75C14.8546 0 15.75 0.895431 15.75 2V10C15.75 11.1046 14.8546 12 13.75 12H12.5V14C12.5 14.9665 11.7165 15.75 10.75 15.75H1.75C0.783502 15.75 0 14.9665 0 14V5C0 4.0335 0.783502 3.25 1.75 3.25H3.75V2ZM3.75 4.75H1.75C1.61193 4.75 1.5 4.86193 1.5 5V14C1.5 14.1381 1.61193 14.25 1.75 14.25H10.75C10.8881 14.25 11 14.1381 11 14V12H5.75C4.64543 12 3.75 11.1046 3.75 10V4.75Z" fill="#604C3F"/>
</svg>
