<svg width="13" height="17" viewBox="0 0 13 17" fill="none" xmlns="http://www.w3.org/2000/svg">
<path fill-rule="evenodd" clip-rule="evenodd" d="M0.984425 1C0.663776 1 0.403839 1.25994 0.403839 1.58059V15.5147C0.403839 15.8353 0.663776 16.0952 0.984425 16.0952H12.0156C12.3362 16.0952 12.5961 15.8353 12.5961 15.5147V4.48352C12.5961 4.32954 12.535 4.18186 12.4261 4.07298L9.52317 1.17005C9.41429 1.06117 9.26661 1 9.11263 1H0.984425ZM1.56501 14.9341V2.16117H8.53204V4.48352C8.53204 4.80417 8.79198 5.0641 9.11263 5.0641H11.435V14.9341H1.56501ZM10.6139 3.90293L9.69322 2.98225V3.90293H10.6139ZM9.60245 7.46592C9.7746 7.1954 9.69485 6.83654 9.42433 6.66439C9.15381 6.49225 8.79496 6.57199 8.62281 6.84251L5.83097 11.2297L4.82249 9.83333C4.63476 9.57339 4.27184 9.51485 4.0119 9.70259C3.75195 9.89033 3.69342 10.2532 3.88116 10.5132L5.39068 12.6033C5.50336 12.7593 5.68603 12.8494 5.8784 12.8437C6.07077 12.8381 6.24784 12.7374 6.35117 12.5751L9.60245 7.46592Z" fill="#604C3F"/>
<path d="M12.4261 4.07298L12.5322 3.96691L12.5322 3.96691L12.4261 4.07298ZM9.52317 1.17005L9.62923 1.06398V1.06398L9.52317 1.17005ZM1.56501 2.16117V2.01117C1.48217 2.01117 1.41501 2.07833 1.41501 2.16117H1.56501ZM1.56501 14.9341H1.41501C1.41501 15.0169 1.48217 15.0841 1.56501 15.0841V14.9341ZM8.53204 2.16117H8.68204C8.68204 2.07833 8.61489 2.01117 8.53204 2.01117V2.16117ZM11.435 5.0641H11.585C11.585 4.98126 11.5178 4.9141 11.435 4.9141V5.0641ZM11.435 14.9341V15.0841C11.5178 15.0841 11.585 15.0169 11.585 14.9341H11.435ZM9.69322 2.98225L9.79928 2.87618C9.75638 2.83328 9.69186 2.82045 9.63581 2.84366C9.57976 2.86688 9.54322 2.92158 9.54322 2.98225H9.69322ZM10.6139 3.90293V4.05293C10.6746 4.05293 10.7293 4.01638 10.7525 3.96033C10.7757 3.90428 10.7629 3.83976 10.72 3.79686L10.6139 3.90293ZM9.69322 3.90293H9.54322C9.54322 3.98577 9.61037 4.05293 9.69322 4.05293V3.90293ZM9.42433 6.66439L9.3438 6.79094L9.42433 6.66439ZM9.60245 7.46592L9.4759 7.38538V7.38538L9.60245 7.46592ZM8.62281 6.84251L8.49626 6.76198V6.76198L8.62281 6.84251ZM5.83097 11.2297L5.70937 11.3175C5.73848 11.3578 5.78568 11.3811 5.83538 11.3796C5.88508 11.3782 5.93083 11.3522 5.95752 11.3102L5.83097 11.2297ZM4.82249 9.83333L4.70089 9.92116V9.92116L4.82249 9.83333ZM4.0119 9.70259L3.92407 9.58099H3.92407L4.0119 9.70259ZM3.88116 10.5132L4.00276 10.4254L3.88116 10.5132ZM5.39068 12.6033L5.51228 12.5155L5.39068 12.6033ZM5.8784 12.8437L5.874 12.6938H5.874L5.8784 12.8437ZM6.35117 12.5751L6.47772 12.6556L6.47772 12.6556L6.35117 12.5751ZM0.553839 1.58059C0.553839 1.34278 0.746619 1.15 0.984425 1.15V0.85C0.580934 0.85 0.253839 1.17709 0.253839 1.58059H0.553839ZM0.553839 15.5147V1.58059H0.253839V15.5147H0.553839ZM0.984425 15.9452C0.746619 15.9452 0.553839 15.7525 0.553839 15.5147H0.253839C0.253839 15.9181 0.580934 16.2452 0.984425 16.2452V15.9452ZM12.0156 15.9452H0.984425V16.2452H12.0156V15.9452ZM12.4461 15.5147C12.4461 15.7525 12.2534 15.9452 12.0156 15.9452V16.2452C12.4191 16.2452 12.7461 15.9181 12.7461 15.5147H12.4461ZM12.4461 4.48352V15.5147H12.7461V4.48352H12.4461ZM12.32 4.17905C12.4008 4.2598 12.4461 4.36932 12.4461 4.48352H12.7461C12.7461 4.28975 12.6692 4.10393 12.5322 3.96691L12.32 4.17905ZM9.4171 1.27612L12.32 4.17905L12.5322 3.96691L9.62923 1.06398L9.4171 1.27612ZM9.11263 1.15C9.22683 1.15 9.33635 1.19537 9.4171 1.27612L9.62923 1.06398C9.49222 0.926972 9.30639 0.85 9.11263 0.85V1.15ZM0.984425 1.15H9.11263V0.85H0.984425V1.15ZM1.41501 2.16117V14.9341H1.71501V2.16117H1.41501ZM8.53204 2.01117H1.56501V2.31117H8.53204V2.01117ZM8.68204 4.48352V2.16117H8.38204V4.48352H8.68204ZM9.11263 4.9141C8.87482 4.9141 8.68204 4.72132 8.68204 4.48352H8.38204C8.38204 4.88701 8.70914 5.2141 9.11263 5.2141V4.9141ZM11.435 4.9141H9.11263V5.2141H11.435V4.9141ZM11.585 14.9341V5.0641H11.285V14.9341H11.585ZM1.56501 15.0841H11.435V14.7841H1.56501V15.0841ZM9.58715 3.08831L10.5078 4.009L10.72 3.79686L9.79928 2.87618L9.58715 3.08831ZM9.84322 3.90293V2.98225H9.54322V3.90293H9.84322ZM10.6139 3.75293H9.69322V4.05293H10.6139V3.75293ZM9.3438 6.79094C9.54443 6.91862 9.60357 7.18476 9.4759 7.38538L9.729 7.54645C9.94562 7.20604 9.84527 6.75447 9.50486 6.53785L9.3438 6.79094ZM8.74936 6.92304C8.87703 6.72241 9.14317 6.66327 9.3438 6.79094L9.50486 6.53785C9.16445 6.32122 8.71289 6.42157 8.49626 6.76198L8.74936 6.92304ZM5.95752 11.3102L8.74936 6.92304L8.49626 6.76198L5.70442 11.1492L5.95752 11.3102ZM4.70089 9.92116L5.70937 11.3175L5.95257 11.1419L4.9441 9.74551L4.70089 9.92116ZM4.09972 9.82419C4.29251 9.68496 4.56166 9.72837 4.70089 9.92116L4.9441 9.74551C4.70786 9.41841 4.25118 9.34475 3.92407 9.58099L4.09972 9.82419ZM4.00276 10.4254C3.86352 10.2326 3.90694 9.96343 4.09972 9.82419L3.92407 9.58099C3.59697 9.81723 3.52331 10.2739 3.75955 10.601L4.00276 10.4254ZM5.51228 12.5155L4.00276 10.4254L3.75955 10.601L5.26908 12.6911L5.51228 12.5155ZM5.874 12.6938C5.73133 12.698 5.59585 12.6312 5.51228 12.5155L5.26908 12.6911C5.41087 12.8874 5.64074 13.0008 5.88281 12.9936L5.874 12.6938ZM6.22462 12.4945C6.14799 12.615 6.01667 12.6896 5.874 12.6938L5.88281 12.9936C6.12488 12.9865 6.3477 12.8599 6.47772 12.6556L6.22462 12.4945ZM9.4759 7.38538L6.22462 12.4945L6.47772 12.6556L9.729 7.54645L9.4759 7.38538Z" fill="#604C3F"/>
</svg>
