<svg width="16" height="19" viewBox="0 0 16 19" fill="none" xmlns="http://www.w3.org/2000/svg">
<path fill-rule="evenodd" clip-rule="evenodd" d="M4.54628 0.813932C4.54628 0.36441 4.91069 0 5.36021 0H10.7864C11.2359 0 11.6004 0.36441 11.6004 0.813932C11.6004 1.26345 11.2359 1.62786 10.7864 1.62786H5.36021C4.91069 1.62786 4.54628 1.26345 4.54628 0.813932ZM0 3.38772C0 2.9382 0.36441 2.57379 0.813932 2.57379H15.1861C15.6356 2.57379 16 2.9382 16 3.38772C16 3.83725 15.6356 4.20166 15.1861 4.20166H14.9734V15.4647C14.9734 17.2628 13.5158 18.7204 11.7177 18.7204H4.72226C2.92417 18.7204 1.46653 17.2628 1.46653 15.4647V4.20166H0.813932C0.36441 4.20166 0 3.83725 0 3.38772ZM3.0944 4.20166V15.4647C3.0944 16.3638 3.82322 17.0926 4.72226 17.0926H11.7177C12.6167 17.0926 13.3455 16.3638 13.3455 15.4647V4.20166H3.0944ZM10.3465 6.68012C10.796 6.68012 11.1604 7.04453 11.1604 7.49405V14.0935C11.1604 14.543 10.796 14.9074 10.3465 14.9074C9.89694 14.9074 9.53253 14.543 9.53253 14.0935V7.49405C9.53253 7.04453 9.89694 6.68012 10.3465 6.68012ZM6.90742 7.49405C6.90742 7.04453 6.54301 6.68012 6.09349 6.68012C5.64397 6.68012 5.27956 7.04453 5.27956 7.49405V14.0935C5.27956 14.543 5.64397 14.9074 6.09349 14.9074C6.54301 14.9074 6.90742 14.543 6.90742 14.0935V7.49405Z" fill="#5D4D40"/>
</svg>
