<svg width="16" height="15" viewBox="0 0 16 15" fill="none" xmlns="http://www.w3.org/2000/svg">
<path fill-rule="evenodd" clip-rule="evenodd" d="M0 2.41071C0 1.07931 1.07931 0 2.41071 0H8.57143C9.01523 0 9.375 0.359771 9.375 0.803571C9.375 1.24737 9.01523 1.60714 8.57143 1.60714H2.41071C1.96691 1.60714 1.60714 1.96691 1.60714 2.41071V12.5893C1.60714 13.0331 1.96691 13.3929 2.41071 13.3929H13.125C13.5688 13.3929 13.9286 13.0331 13.9286 12.5893V6.69643C13.9286 6.25263 14.2883 5.89286 14.7321 5.89286C15.1759 5.89286 15.5357 6.25263 15.5357 6.69643V12.5893C15.5357 13.9207 14.4564 15 13.125 15H2.41071C1.07931 15 0 13.9207 0 12.5893V2.41071Z" fill="#5D4D40"/>
<path fill-rule="evenodd" clip-rule="evenodd" d="M11.6192 0.637358C12.4508 -0.194223 13.7991 -0.194224 14.6307 0.637358C15.4622 1.46894 15.4622 2.8172 14.6307 3.64878L8.49292 9.78652C8.24176 10.0377 7.90111 10.1788 7.5459 10.1788H6.42852C5.68885 10.1788 5.08923 9.57916 5.08923 8.8395V7.72211C5.08923 7.36691 5.23034 7.02626 5.4815 6.77509L11.6192 0.637358ZM13.4942 1.77378C13.2903 1.56983 12.9596 1.56983 12.7557 1.77378L6.69638 7.83306V8.57164H7.43495L13.4942 2.51236C13.6982 2.30841 13.6982 1.97773 13.4942 1.77378Z" fill="#5D4D40"/>
</svg>
