<svg width="16" height="17" viewBox="0 0 16 17" fill="none" xmlns="http://www.w3.org/2000/svg">
<path fill-rule="evenodd" clip-rule="evenodd" d="M11.4254 5.80545C11.7022 6.08931 11.7022 6.54953 11.4254 6.83338L6.81775 11.5579C6.54092 11.8418 6.09209 11.8418 5.81526 11.5579C5.53843 11.2741 5.53843 10.8139 5.81526 10.53L10.4229 5.80545C10.6997 5.5216 11.1486 5.5216 11.4254 5.80545Z" fill="#5D4D40" stroke="#5D4D40" stroke-width="0.5" stroke-linecap="round"/>
<path fill-rule="evenodd" clip-rule="evenodd" d="M11.1255 2.57607C10.2374 2.83289 9.41729 3.44104 8.94437 3.92596C8.66754 4.20981 8.21871 4.20981 7.94188 3.92596C7.66505 3.6421 7.66505 3.18188 7.94188 2.89803C8.53226 2.29266 9.55518 1.51978 10.7406 1.17695C11.963 0.823415 13.4005 0.925574 14.6153 2.17117C15.2063 2.77717 15.5388 3.44654 15.6508 4.14057C15.7615 4.82678 15.6488 5.48563 15.4323 6.06903C15.0067 7.2164 14.1459 8.16902 13.4936 8.70414C13.1879 8.95491 12.7418 8.90409 12.4972 8.59063C12.2527 8.27716 12.3022 7.81976 12.6079 7.56898C13.1371 7.13496 13.8003 6.37946 14.1072 5.55221C14.2571 5.14829 14.3126 4.7532 14.2521 4.3779C14.1928 4.01042 14.0142 3.6107 13.6128 3.1991C12.8428 2.4095 11.9765 2.32995 11.1255 2.57607Z" fill="#5D4D40" stroke="#5D4D40" stroke-width="0.5" stroke-linecap="round"/>
<path fill-rule="evenodd" clip-rule="evenodd" d="M5.56845 14.4239C6.45648 14.1671 7.27662 13.559 7.74954 13.074C8.02637 12.7902 8.4752 12.7902 8.75203 13.074C9.02886 13.3579 9.02886 13.8181 8.75203 14.102C8.16165 14.7073 7.13873 15.4802 5.95331 15.8231C4.7309 16.1766 3.29336 16.0744 2.07859 14.8288C1.48758 14.2228 1.15513 13.5535 1.04312 12.8594C0.932379 12.1732 1.04515 11.5144 1.26157 10.931C1.68719 9.7836 2.54796 8.83098 3.20031 8.29586C3.50602 8.04509 3.9521 8.09591 4.19667 8.40937C4.44124 8.72284 4.39167 9.18024 4.08596 9.43102C3.55686 9.86504 2.89356 10.6205 2.58669 11.4478C2.43685 11.8517 2.38127 12.2468 2.44184 12.6221C2.50114 12.9896 2.67967 13.3893 3.08108 13.8009C3.85114 14.5905 4.71743 14.6701 5.56845 14.4239Z" fill="#5D4D40" stroke="#5D4D40" stroke-width="0.5" stroke-linecap="round"/>
</svg>
