<svg width="13" height="19" viewBox="0 0 13 19" fill="none" xmlns="http://www.w3.org/2000/svg">
<path fill-rule="evenodd" clip-rule="evenodd" d="M0 2C0 0.89543 0.89543 0 2 0H11C12.1046 0 13 0.89543 13 2V10C13 10.3682 12.7015 10.6667 12.3333 10.6667C11.9651 10.6667 11.6667 10.3682 11.6667 10V2C11.6667 1.63181 11.3682 1.33333 11 1.33333H2C1.63181 1.33333 1.33333 1.63181 1.33333 2V16.3333C1.33333 16.7015 1.63181 17 2 17H6C6.36819 17 6.66666 17.2985 6.66666 17.6667C6.66666 18.0349 6.36819 18.3333 6 18.3333H2C0.89543 18.3333 0 17.4379 0 16.3333V2Z" fill="#604C3F"/>
<path fill-rule="evenodd" clip-rule="evenodd" d="M8.66666 15C9.58713 15 10.3333 14.2538 10.3333 13.3333C10.3333 12.4128 9.58713 11.6667 8.66666 11.6667C7.74618 11.6667 6.99999 12.4128 6.99999 13.3333C6.99999 14.2538 7.74618 15 8.66666 15ZM8.66666 16.3333C10.3235 16.3333 11.6667 14.9902 11.6667 13.3333C11.6667 11.6765 10.3235 10.3333 8.66666 10.3333C7.0098 10.3333 5.66666 11.6765 5.66666 13.3333C5.66666 14.9902 7.0098 16.3333 8.66666 16.3333Z" fill="#604C3F"/>
<path fill-rule="evenodd" clip-rule="evenodd" d="M9.89947 14.8272C10.179 14.5875 10.5999 14.6199 10.8395 14.8995L12.8395 17.2328C13.0791 17.5123 13.0467 17.9332 12.7672 18.1728C12.4876 18.4124 12.0668 18.3801 11.8272 18.1005L9.82716 15.7672C9.58755 15.4876 9.61992 15.0668 9.89947 14.8272Z" fill="#604C3F"/>
<path fill-rule="evenodd" clip-rule="evenodd" d="M2.66666 4C2.66666 3.63181 2.96513 3.33333 3.33332 3.33333H9.33332C9.70151 3.33333 9.99999 3.63181 9.99999 4C9.99999 4.36819 9.70151 4.66667 9.33332 4.66667H3.33332C2.96513 4.66667 2.66666 4.36819 2.66666 4Z" fill="#604C3F"/>
<path fill-rule="evenodd" clip-rule="evenodd" d="M2.66666 7.66666C2.66666 7.29847 2.96513 6.99999 3.33332 6.99999H9.33332C9.70151 6.99999 9.99999 7.29847 9.99999 7.66666C9.99999 8.03485 9.70151 8.33332 9.33332 8.33332H3.33332C2.96513 8.33332 2.66666 8.03485 2.66666 7.66666Z" fill="#604C3F"/>
</svg>
