<svg width="18" height="18" viewBox="0 0 18 18" fill="none" xmlns="http://www.w3.org/2000/svg">
<path fill-rule="evenodd" clip-rule="evenodd" d="M6.49261 11.3305C9.0499 11.6513 11.383 9.8383 11.7038 7.28101C12.0246 4.72373 10.2116 2.39058 7.65432 2.06978C5.09704 1.74898 2.76389 3.56201 2.44309 6.1193C2.12229 8.67659 3.93532 11.0097 6.49261 11.3305ZM6.32665 12.6535C9.61459 13.066 12.6144 10.7349 13.0268 7.44697C13.4393 4.15903 11.1082 1.15927 7.82028 0.746816C4.53234 0.334361 1.53258 2.6654 1.12013 5.95334C0.707672 9.24128 3.03871 12.241 6.32665 12.6535Z" fill="#5D4D40" stroke="#5D4D40" stroke-width="0.5" stroke-linecap="round" stroke-linejoin="round"/>
<path fill-rule="evenodd" clip-rule="evenodd" d="M10.8596 10.4201C11.1866 10.1659 11.6578 10.2251 11.912 10.5521L15.8169 15.5772C16.071 15.9043 16.0119 16.3755 15.6848 16.6297C15.3578 16.8838 14.8866 16.8247 14.6324 16.4976L10.7275 11.4725C10.4734 11.1454 10.5325 10.6743 10.8596 10.4201Z" fill="#5D4D40" stroke="#5D4D40" stroke-width="0.5" stroke-linecap="round" stroke-linejoin="round"/>
</svg>
